<svg xmlns="http://www.w3.org/2000/svg" version="1.0" width="11520" height="4500" preserveAspectRatio="xMidYMid meet"><rect id="backgroundrect" width="100%" height="100%" x="0" y="0" fill="none" stroke="none"/>






<g class="currentLayer" style=""><title>Layer 1</title><g id="layer101" fill="#36538b" stroke="none">
 <path d="M0 2250 l0 -2250 5760 0 5760 0 0 2250 0 2250 -5760 0 -5760 0 0 -2250z" id="svg_1"/>
 </g><g id="layer102" fill="#415f9d" stroke="none" class="" opacity="1">
 <path d="M0 2250 l0 -2250 5760 0 5760 0 0 2250 0 2250 -5760 0 -5760 0 0 -2250z m10231 1688 c60 -21 153 -68 157 -79 2 -5 10 -9 18 -9 8 0 14 -5 14 -10 0 -6 11 -15 25 -20 13 -5 36 -27 50 -49 15 -22 33 -42 41 -45 8 -3 14 -12 14 -20 0 -8 4 -16 8 -18 18 -7 77 -146 90 -211 9 -44 9 -2533 0 -2578 -12 -60 -73 -199 -90 -207 -5 -2 -8 -10 -8 -18 0 -8 -6 -17 -14 -20 -8 -3 -26 -23 -41 -45 -14 -22 -37 -44 -50 -49 -14 -5 -25 -14 -25 -20 0 -5 -6 -10 -14 -10 -8 0 -16 -4 -18 -9 -5 -13 -116 -66 -173 -82 -76 -21 -8975 -21 -9050 0 -55 16 -168 70 -173 83 -2 4 -10 8 -17 8 -7 0 -15 7 -19 15 -3 8 -12 15 -20 15 -8 0 -27 17 -43 37 -15 21 -34 46 -43 55 -29 33 -36 44 -67 108 -33 69 -41 92 -51 143 -9 42 -9 2532 0 2574 13 65 72 204 90 211 4 2 8 10 8 18 0 8 6 17 14 20 8 3 26 23 41 45 14 22 37 44 50 49 14 5 25 14 25 20 0 5 6 10 14 10 8 0 16 4 18 9 9 24 164 85 243 94 17 2 2037 4 4490 3 4113 -1 4464 -2 4506 -18z" id="svg_2" opacity="1"/>
 <path d="M1171 3924 c-200 -54 -365 -220 -416 -419 -23 -89 -23 -2541 0 -2630 51 -201 217 -367 421 -420 52 -13 559 -15 4514 -15 3961 0 4462 2 4514 15 205 54 369 217 421 420 23 89 23 2540 0 2630 -39 153 -148 293 -283 364 -44 22 -105 47 -138 56 -52 13 -552 15 -4519 14 -3853 0 -4467 -2 -4514 -15z" id="svg_3" opacity="1"/>
 </g><g id="layer103" fill="#4d73be" stroke="none" class="">
 <path d="M0 2250 l0 -2250 5760 0 5760 0 0 2250 0 2250 -5760 0 -5760 0 0 -2250z m10233 1688 c198 -71 335 -205 398 -393 l24 -70 0 -1285 0 -1285 -24 -70 c-65 -193 -221 -342 -416 -396 -75 -21 -8975 -21 -9050 0 -189 53 -344 197 -413 384 l-27 72 0 1290 0 1290 24 70 c74 219 267 381 486 408 17 2 2037 4 4490 3 4173 -1 4463 -2 4508 -18z" id="svg_4"/>
 <path d="M1265 3934 c-187 -22 -348 -122 -440 -274 -18 -30 -44 -89 -57 -130 l-23 -75 0 -1265 0 -1265 23 -75 c30 -95 75 -170 147 -242 62 -63 177 -127 265 -149 82 -21 8938 -21 9020 0 88 22 201 86 264 149 72 72 118 147 148 242 l23 75 0 1265 0 1265 -23 75 c-59 187 -202 328 -396 389 -47 14 -438 16 -4486 17 -2439 1 -4448 0 -4465 -2z" id="svg_5"/>
 </g><g id="layer104" fill="#4d91d4" stroke="none">
 <path d="M0 2250 l0 -2250 5760 0 5760 0 0 2250 0 2250 -5760 0 -5760 0 0 -2250z m10233 1688 c198 -71 335 -205 398 -393 l24 -70 0 -1285 0 -1285 -24 -70 c-65 -193 -221 -342 -416 -396 -75 -21 -8975 -21 -9050 0 -189 53 -344 197 -413 384 l-27 72 0 1290 0 1290 24 70 c74 219 267 381 486 408 17 2 2037 4 4490 3 4173 -1 4463 -2 4508 -18z" id="svg_6"/>
 <path d="M9350 2929 c-39 -12 -371 -333 -420 -408 -37 -55 -47 -115 -27 -163 18 -43 39 -56 102 -65 78 -10 75 6 75 -364 0 -373 2 -388 66 -415 29 -12 79 -14 274 -12 224 3 240 4 267 24 15 11 31 32 34 45 4 13 7 173 8 356 1 357 2 363 53 363 11 0 38 5 59 12 32 9 41 18 55 54 22 57 12 120 -27 174 -42 58 -335 356 -374 380 -39 24 -100 32 -145 19z m92 -348 l32 -29 -3 -388 c-3 -429 0 -414 -65 -414 -63 0 -60 -14 -68 377 -4 197 -8 373 -9 392 -2 27 4 40 29 63 18 15 37 28 42 28 5 0 24 -13 42 -29z" id="svg_7"/>
 <path d="M2807 2845 c-69 -15 -130 -40 -173 -71 -45 -33 -97 -117 -124 -199 -12 -38 -24 -73 -27 -77 -9 -16 -34 7 -56 52 -70 140 -149 208 -300 258 -80 26 -88 27 -314 27 -268 0 -274 -2 -305 -91 -16 -44 -17 -97 -15 -539 2 -468 3 -492 22 -530 29 -57 75 -77 194 -83 119 -5 313 12 406 36 183 48 317 198 362 404 14 68 19 78 36 76 11 -2 30 -23 44 -48 85 -156 302 -226 536 -174 87 19 138 47 195 108 24 25 48 44 53 40 5 -3 9 -20 9 -37 0 -83 69 -125 185 -113 100 10 105 17 177 246 27 86 49 101 68 48 7 -18 26 -82 44 -142 37 -129 52 -145 142 -153 75 -7 139 10 160 43 9 13 35 84 58 157 35 108 46 132 61 132 21 0 26 -11 75 -174 19 -62 40 -112 54 -126 42 -42 164 -44 242 -4 37 18 38 18 68 0 45 -28 117 -36 187 -21 48 10 67 10 106 -1 66 -19 235 -17 291 4 103 39 162 123 187 263 20 112 21 571 1 619 -23 54 -58 70 -148 69 -81 -1 -104 -11 -131 -59 -8 -13 -14 -112 -17 -287 -5 -251 -6 -268 -26 -295 -34 -45 -71 -42 -127 10 l-47 43 0 243 c0 257 -4 286 -50 326 -29 26 -159 28 -206 2 -48 -25 -54 -65 -57 -391 -3 -399 -4 -399 -139 38 -44 143 -89 278 -99 298 -31 61 -59 73 -169 73 -132 0 -149 -14 -195 -165 -19 -61 -40 -100 -55 -100 -5 0 -23 44 -40 99 -39 126 -55 146 -127 161 -73 15 -174 5 -207 -21 -25 -20 -38 -53 -131 -354 -21 -66 -46 -129 -56 -139 -21 -23 -18 -31 -43 130 -19 129 -59 219 -127 286 -59 59 -111 84 -215 103 -90 18 -158 18 -237 0z m197 -303 c49 -29 71 -84 71 -182 0 -66 -5 -94 -21 -125 -36 -69 -117 -94 -181 -55 -45 27 -64 71 -70 160 -8 116 21 184 92 216 33 15 66 11 109 -14z m-988 -20 c95 -49 154 -166 154 -306 0 -186 -102 -310 -263 -323 -102 -9 -97 -24 -97 327 0 352 -5 335 99 328 39 -3 83 -14 107 -26z" id="svg_8"/>
 <path d="M6250 2853 c-64 -10 -169 -47 -205 -72 -53 -36 -109 -120 -136 -206 -40 -128 -59 -112 -59 53 0 166 -24 209 -124 219 -32 3 -74 1 -100 -7 -38 -10 -49 -19 -66 -54 -19 -41 -20 -60 -20 -604 0 -612 0 -612 56 -648 41 -27 163 -26 201 2 48 36 52 64 53 389 0 263 6 343 23 325 3 -3 21 -45 41 -94 65 -163 146 -238 288 -271 137 -31 332 -8 417 48 86 57 151 180 172 325 13 97 26 108 72 65 18 -16 47 -40 65 -52 38 -27 38 -43 -1 -48 -52 -7 -74 -21 -92 -59 -21 -45 -16 -137 10 -182 46 -78 275 -134 440 -107 95 15 152 41 200 92 46 49 71 130 91 296 3 26 8 47 12 47 4 0 17 -41 29 -92 28 -118 75 -209 136 -263 68 -62 119 -78 261 -80 88 -2 120 -6 127 -16 5 -8 9 -61 9 -119 0 -186 20 -214 155 -215 97 0 126 15 143 73 16 52 17 1119 1 1175 -5 20 -20 44 -32 51 -35 23 -106 28 -170 12 -54 -13 -66 -12 -140 6 -134 33 -277 8 -360 -63 -61 -52 -125 -190 -143 -309 -3 -19 -7 -37 -9 -38 -11 -12 -25 90 -26 188 0 129 -12 174 -51 203 -31 23 -118 31 -175 15 -27 -7 -58 -6 -125 7 -97 19 -161 16 -247 -11 -73 -24 -122 -70 -161 -153 -19 -39 -37 -71 -41 -71 -9 0 -59 59 -59 69 0 12 -72 86 -105 108 -83 54 -246 84 -355 66z m136 -302 c25 -12 50 -33 65 -57 21 -34 24 -51 24 -129 0 -69 -5 -99 -19 -129 -57 -115 -210 -94 -246 33 -13 48 -13 150 1 192 15 43 45 78 84 95 39 17 42 17 91 -5z m833 -16 c33 -32 19 -49 -37 -42 -47 5 -75 28 -65 52 11 31 65 26 102 -10z m854 2 c65 -39 77 -68 77 -181 l0 -99 -44 -43 c-54 -54 -93 -59 -136 -16 -37 38 -53 101 -48 187 5 79 34 145 70 162 33 16 39 16 81 -10z m-867 -334 c26 -10 10 -38 -27 -47 -29 -7 -44 -4 -84 16 -78 38 -72 52 19 44 42 -4 84 -10 92 -13z" id="svg_9"/>
 </g><g id="layer105" fill="#ffffff" stroke="none" class="selected" opacity="1" filter="url(#f023)">
 <path d="M0 2250 l0 -2250 5760 0 5760 0 0 2250 0 2250 -5760 0 -5760 0 0 -2250z m10233 1688 c198 -71 335 -205 398 -393 l24 -70 0 -1285 0 -1285 -24 -70 c-65 -193 -221 -342 -416 -396 -75 -21 -8975 -21 -9050 0 -189 53 -344 197 -413 384 l-27 72 0 1290 0 1290 24 70 c74 219 267 381 486 408 17 2 2037 4 4490 3 4173 -1 4463 -2 4508 -18z" id="svg_10" opacity="1" filter="url(#f023)"/>
 <path d="M9177 2652 c-194 -194 -197 -198 -197 -240 l0 -42 95 0 95 0 0 -395 0 -395 235 0 235 0 0 395 0 394 93 3 92 3 3 37 c3 35 -3 43 -194 237 -173 177 -200 201 -228 201 -27 0 -56 -25 -229 -198z m377 -49 c76 -79 133 -143 125 -144 -8 -1 -39 -2 -69 -3 l-55 -1 -3 -397 -2 -398 -145 0 -145 0 -2 398 -3 397 -67 -1 c-38 -1 -68 1 -68 3 0 12 275 293 284 291 6 -2 74 -67 150 -145z" id="svg_11" opacity="1" filter="url(#f023)"/>
 <path d="M2861 2768 c-167 -19 -266 -127 -292 -317 -20 -151 17 -302 97 -391 135 -150 437 -146 563 7 58 71 75 132 75 278 1 152 -14 214 -73 291 -81 108 -205 152 -370 132z m176 -137 c53 -24 98 -86 114 -155 6 -30 10 -95 7 -148 -3 -77 -9 -105 -29 -144 -62 -120 -215 -151 -328 -66 -96 72 -120 321 -42 445 53 82 178 113 278 68z" id="svg_12" opacity="1" filter="url(#f023)"/>
 <path d="M6261 2768 c-167 -19 -266 -127 -292 -317 -20 -151 17 -302 97 -390 86 -96 248 -135 397 -96 106 28 178 92 219 195 30 75 33 286 5 371 -58 174 -215 262 -426 237z m176 -137 c53 -24 98 -86 114 -155 6 -30 10 -95 7 -148 -3 -77 -9 -105 -29 -144 -62 -120 -215 -151 -328 -66 -96 72 -120 321 -42 445 53 82 178 113 278 68z" id="svg_13" opacity="1" filter="url(#f023)"/>
 <path d="M7067 2768 c-109 -14 -177 -75 -196 -173 -10 -54 0 -136 21 -164 69 -93 130 -118 316 -134 l132 -10 0 -51 c-1 -72 -29 -128 -75 -150 -59 -28 -171 -19 -256 22 -75 36 -94 39 -103 16 -38 -99 83 -169 294 -169 98 0 109 2 160 30 39 22 63 44 85 79 l30 49 0 321 0 321 -55 0 -55 0 -3 -37 c-4 -42 -11 -47 -35 -20 -47 52 -162 83 -260 70z m163 -128 c22 -11 55 -34 75 -51 35 -31 35 -32 35 -111 l0 -80 -107 4 c-123 4 -174 22 -204 72 -22 36 -24 91 -5 124 33 61 130 81 206 42z" id="svg_14" opacity="1" filter="url(#f023)"/>
 <path d="M7945 2769 c-67 -9 -96 -22 -139 -60 -86 -75 -120 -188 -114 -369 6 -135 27 -205 85 -281 94 -124 292 -145 411 -44 22 19 43 35 46 35 3 0 6 -99 6 -219 0 -243 -4 -231 69 -231 76 0 72 -42 69 590 l-3 565 -60 0 -60 0 -3 -53 -3 -53 -39 35 c-77 70 -166 98 -265 85z m153 -138 c20 -10 61 -43 90 -72 l52 -54 0 -146 0 -147 -63 -59 c-39 -37 -79 -63 -104 -71 -90 -27 -175 23 -214 127 -39 106 -22 306 32 376 51 64 134 83 207 46z" id="svg_15" opacity="1" filter="url(#f023)"/>
 <path d="M1598 2743 c-17 -18 -18 -58 -18 -525 0 -490 1 -505 20 -523 18 -16 37 -17 222 -13 226 6 292 20 381 79 147 97 214 256 204 484 -12 273 -113 420 -337 490 -41 13 -104 19 -255 22 -188 5 -201 4 -217 -14z m462 -144 c141 -67 197 -192 188 -419 -4 -96 -9 -124 -30 -171 -68 -149 -186 -208 -420 -209 l-68 0 0 416 0 416 138 -4 c123 -3 143 -6 192 -29z" id="svg_16" opacity="1" filter="url(#f023)"/>
 <path d="M3660 2738 c-15 -33 -230 -740 -230 -754 0 -17 24 -24 81 -24 40 0 51 4 62 23 8 12 51 151 97 310 46 158 86 287 89 287 3 0 42 -134 85 -298 46 -174 85 -302 94 -309 20 -17 107 -17 120 0 5 6 50 148 98 315 48 166 89 300 91 298 2 -2 42 -138 89 -302 47 -164 90 -305 96 -312 8 -8 30 -12 67 -10 50 3 56 6 59 26 4 24 -213 738 -230 760 -12 13 -145 17 -166 4 -6 -5 -47 -128 -89 -275 -42 -147 -80 -264 -83 -260 -4 5 -37 123 -74 263 -38 140 -73 261 -78 268 -7 8 -38 12 -89 12 -73 0 -80 -2 -89 -22z" id="svg_17" opacity="1" filter="url(#f023)"/>
 <path d="M4736 2744 c-3 -9 -6 -183 -6 -389 0 -310 2 -375 14 -384 8 -7 36 -11 63 -9 l48 3 3 53 c2 28 6 52 9 52 3 0 23 -16 44 -35 55 -49 114 -76 181 -82 116 -11 211 39 256 135 l27 57 0 305 0 305 -65 0 -65 0 -5 -280 c-5 -267 -6 -282 -28 -322 -26 -50 -70 -76 -127 -76 -52 0 -97 24 -157 84 l-48 48 0 260 c0 143 -3 266 -6 275 -5 12 -21 16 -69 16 -48 0 -64 -4 -69 -16z" id="svg_18" opacity="1" filter="url(#f023)"/>
 <path d="M5626 2744 c-3 -9 -6 -264 -6 -568 0 -416 3 -555 12 -564 7 -7 35 -12 63 -12 28 0 56 5 63 12 9 9 12 148 12 564 0 304 -3 559 -6 568 -5 12 -21 16 -69 16 -48 0 -64 -4 -69 -16z" id="svg_19" opacity="1" filter="url(#f023)"/>
 </g></g><defs><filter id="f023" xmlns:inkscape="http://www.inkscape.org/namespaces/inkscape" inkscape:label="Sharpen more" x="0" y="0" width="1" height="1" inkscape:menu="Image effects" inkscape:menu-tooltip="Sharpen edges and boundaries within the object, force=0.3" color-interpolation-filters="sRGB">
            <feConvolveMatrix targetY="1" targetX="1" in="SourceGraphic" divisor="1" kernelMatrix="0 -0.3 0 -0.3 2.2 -0.3 0 -0.3 0" order="3 3" result="result1"/>
            <feBlend in2="SourceGraphic" mode="normal" result="result2"/>
        </filter></defs></svg>